<mxfile host="app.diagrams.net" modified="2023-04-12T07:54:36.396Z" agent="Mozilla/5.0 (X11; Linux x86_64; rv:102.0) Gecko/20100101 Firefox/102.0" etag="1Lnn6SbFUP7cohEpqXDM" version="21.1.5" type="device">
  <diagram name="P치gina-1" id="AvLUnw90TaFhlQHaY8LK">
    <mxGraphModel dx="1194" dy="765" grid="1" gridSize="10" guides="1" tooltips="1" connect="1" arrows="1" fold="1" page="1" pageScale="1" pageWidth="827" pageHeight="1169" math="0" shadow="0">
      <root>
        <mxCell id="0" />
        <mxCell id="1" parent="0" />
        <mxCell id="kqJF-_SMoIaTMhnPQcGV-2" value="" style="rounded=1;whiteSpace=wrap;html=1;labelPosition=center;verticalLabelPosition=bottom;align=center;verticalAlign=top;fillColor=#fff2cc;strokeColor=#d6b656;" parent="1" vertex="1">
          <mxGeometry x="180" y="160" width="600" height="410" as="geometry" />
        </mxCell>
        <mxCell id="kqJF-_SMoIaTMhnPQcGV-5" value="" style="edgeStyle=orthogonalEdgeStyle;rounded=0;orthogonalLoop=1;jettySize=auto;html=1;" parent="1" source="4d2zQpIDs25eRN6ht3no-1" target="4d2zQpIDs25eRN6ht3no-4" edge="1">
          <mxGeometry relative="1" as="geometry" />
        </mxCell>
        <mxCell id="4d2zQpIDs25eRN6ht3no-1" value="&lt;b&gt;Deployment&lt;/b&gt;" style="rounded=1;whiteSpace=wrap;html=1;fillColor=#ffe6cc;strokeColor=#d79b00;" parent="1" vertex="1">
          <mxGeometry x="340" y="220" width="120" height="60" as="geometry" />
        </mxCell>
        <mxCell id="ezeRt8G8Zug7qTXGzrt9-8" value="" style="edgeStyle=orthogonalEdgeStyle;rounded=0;orthogonalLoop=1;jettySize=auto;html=1;entryX=0;entryY=0.5;entryDx=0;entryDy=0;" edge="1" parent="1" source="4d2zQpIDs25eRN6ht3no-2" target="ezeRt8G8Zug7qTXGzrt9-6">
          <mxGeometry relative="1" as="geometry">
            <mxPoint x="370" y="330" as="targetPoint" />
          </mxGeometry>
        </mxCell>
        <mxCell id="ezeRt8G8Zug7qTXGzrt9-13" value="&lt;font size=&quot;1&quot;&gt;&lt;b style=&quot;font-size: 15px;&quot;&gt;S2I&lt;/b&gt;&lt;/font&gt;" style="edgeLabel;html=1;align=center;verticalAlign=middle;resizable=0;points=[];" vertex="1" connectable="0" parent="ezeRt8G8Zug7qTXGzrt9-8">
          <mxGeometry x="0.2824" y="1" relative="1" as="geometry">
            <mxPoint as="offset" />
          </mxGeometry>
        </mxCell>
        <mxCell id="4d2zQpIDs25eRN6ht3no-2" value="&lt;b&gt;BuildConfig&lt;/b&gt;" style="rounded=1;whiteSpace=wrap;html=1;fillColor=#ffe6cc;strokeColor=#d79b00;" parent="1" vertex="1">
          <mxGeometry x="200" y="300" width="100" height="60" as="geometry" />
        </mxCell>
        <mxCell id="kqJF-_SMoIaTMhnPQcGV-6" value="" style="edgeStyle=orthogonalEdgeStyle;rounded=0;orthogonalLoop=1;jettySize=auto;html=1;" parent="1" source="4d2zQpIDs25eRN6ht3no-4" target="4d2zQpIDs25eRN6ht3no-6" edge="1">
          <mxGeometry relative="1" as="geometry" />
        </mxCell>
        <mxCell id="4d2zQpIDs25eRN6ht3no-4" value="&lt;b&gt;ReplicaSet&lt;/b&gt;" style="rounded=1;whiteSpace=wrap;html=1;fillColor=#ffe6cc;strokeColor=#d79b00;" parent="1" vertex="1">
          <mxGeometry x="490" y="220" width="120" height="60" as="geometry" />
        </mxCell>
        <mxCell id="4d2zQpIDs25eRN6ht3no-6" value="&lt;b&gt;PODS&lt;/b&gt;" style="rounded=1;whiteSpace=wrap;html=1;fillColor=#ffe6cc;strokeColor=#d79b00;" parent="1" vertex="1">
          <mxGeometry x="640" y="220" width="120" height="60" as="geometry" />
        </mxCell>
        <mxCell id="4d2zQpIDs25eRN6ht3no-10" value="&lt;div align=&quot;center&quot;&gt;&lt;font size=&quot;1&quot;&gt;&lt;b style=&quot;font-size: 22px;&quot;&gt;Despliegue de aplicaciones desde c칩digo fuente&lt;br&gt;&lt;/b&gt;&lt;/font&gt;&lt;/div&gt;" style="text;strokeColor=none;align=left;fillColor=none;html=1;verticalAlign=middle;whiteSpace=wrap;rounded=0;" parent="1" vertex="1">
          <mxGeometry x="240" y="120" width="520" height="30" as="geometry" />
        </mxCell>
        <mxCell id="ezeRt8G8Zug7qTXGzrt9-3" value="" style="edgeStyle=orthogonalEdgeStyle;rounded=0;orthogonalLoop=1;jettySize=auto;html=1;" edge="1" parent="1" source="kqJF-_SMoIaTMhnPQcGV-1" target="4d2zQpIDs25eRN6ht3no-2">
          <mxGeometry relative="1" as="geometry" />
        </mxCell>
        <mxCell id="kqJF-_SMoIaTMhnPQcGV-1" value="&lt;div&gt;&lt;b&gt;C칩digo de la aplicaci칩n&lt;/b&gt;&lt;/div&gt;&lt;div&gt;&lt;b&gt;(Repositorio Git)&lt;br&gt;&lt;/b&gt;&lt;/div&gt;" style="shape=cylinder3;whiteSpace=wrap;html=1;boundedLbl=1;backgroundOutline=1;size=15;fillColor=#dae8fc;strokeColor=#6c8ebf;" parent="1" vertex="1">
          <mxGeometry x="50" y="280" width="90" height="100" as="geometry" />
        </mxCell>
        <mxCell id="kqJF-_SMoIaTMhnPQcGV-9" value="" style="edgeStyle=orthogonalEdgeStyle;rounded=0;orthogonalLoop=1;jettySize=auto;html=1;" parent="1" source="kqJF-_SMoIaTMhnPQcGV-7" target="4d2zQpIDs25eRN6ht3no-6" edge="1">
          <mxGeometry relative="1" as="geometry" />
        </mxCell>
        <mxCell id="kqJF-_SMoIaTMhnPQcGV-7" value="&lt;b&gt;Service&lt;/b&gt;" style="rounded=1;whiteSpace=wrap;html=1;fillColor=#d5e8d4;strokeColor=#82b366;" parent="1" vertex="1">
          <mxGeometry x="640" y="300" width="120" height="60" as="geometry" />
        </mxCell>
        <mxCell id="kqJF-_SMoIaTMhnPQcGV-11" value="" style="edgeStyle=orthogonalEdgeStyle;rounded=0;orthogonalLoop=1;jettySize=auto;html=1;" parent="1" source="kqJF-_SMoIaTMhnPQcGV-8" target="kqJF-_SMoIaTMhnPQcGV-7" edge="1">
          <mxGeometry relative="1" as="geometry" />
        </mxCell>
        <mxCell id="kqJF-_SMoIaTMhnPQcGV-8" value="&lt;b&gt;Route&lt;/b&gt;" style="rounded=1;whiteSpace=wrap;html=1;fillColor=#d5e8d4;strokeColor=#82b366;" parent="1" vertex="1">
          <mxGeometry x="640" y="390" width="120" height="60" as="geometry" />
        </mxCell>
        <mxCell id="kqJF-_SMoIaTMhnPQcGV-13" value="" style="html=1;shadow=0;dashed=0;align=center;verticalAlign=middle;shape=mxgraph.arrows2.arrow;dy=0.6;dx=40;direction=north;notch=0;fillColor=#e1d5e7;strokeColor=#9673a6;" parent="1" vertex="1">
          <mxGeometry x="685" y="450" width="30" height="150" as="geometry" />
        </mxCell>
        <mxCell id="kqJF-_SMoIaTMhnPQcGV-14" value="&lt;h1&gt;OpenShift&lt;/h1&gt;" style="text;strokeColor=none;align=center;fillColor=none;html=1;verticalAlign=middle;whiteSpace=wrap;rounded=0;" parent="1" vertex="1">
          <mxGeometry x="260" y="540" width="60" height="30" as="geometry" />
        </mxCell>
        <mxCell id="ezeRt8G8Zug7qTXGzrt9-5" value="" style="edgeStyle=orthogonalEdgeStyle;rounded=0;orthogonalLoop=1;jettySize=auto;html=1;" edge="1" parent="1" source="ezeRt8G8Zug7qTXGzrt9-4" target="4d2zQpIDs25eRN6ht3no-2">
          <mxGeometry relative="1" as="geometry" />
        </mxCell>
        <mxCell id="ezeRt8G8Zug7qTXGzrt9-4" value="&lt;div&gt;&lt;b&gt;Image Build&lt;/b&gt;&lt;/div&gt;&lt;div&gt;&lt;b&gt;(Registro interno)&lt;/b&gt;&lt;br&gt;&lt;/div&gt;" style="shape=cylinder3;whiteSpace=wrap;html=1;boundedLbl=1;backgroundOutline=1;size=15;fillColor=#ffe6cc;strokeColor=#d79b00;" vertex="1" parent="1">
          <mxGeometry x="205" y="410" width="90" height="100" as="geometry" />
        </mxCell>
        <mxCell id="ezeRt8G8Zug7qTXGzrt9-10" value="" style="edgeStyle=orthogonalEdgeStyle;rounded=0;orthogonalLoop=1;jettySize=auto;html=1;" edge="1" parent="1" source="ezeRt8G8Zug7qTXGzrt9-6" target="ezeRt8G8Zug7qTXGzrt9-9">
          <mxGeometry relative="1" as="geometry" />
        </mxCell>
        <mxCell id="ezeRt8G8Zug7qTXGzrt9-6" value="&lt;b&gt;Imagen&lt;/b&gt;" style="ellipse;whiteSpace=wrap;html=1;fillColor=#ffe6cc;strokeColor=#d79b00;" vertex="1" parent="1">
          <mxGeometry x="340" y="420" width="120" height="80" as="geometry" />
        </mxCell>
        <mxCell id="ezeRt8G8Zug7qTXGzrt9-11" value="" style="edgeStyle=orthogonalEdgeStyle;rounded=0;orthogonalLoop=1;jettySize=auto;html=1;" edge="1" parent="1" source="ezeRt8G8Zug7qTXGzrt9-9" target="4d2zQpIDs25eRN6ht3no-1">
          <mxGeometry relative="1" as="geometry" />
        </mxCell>
        <mxCell id="ezeRt8G8Zug7qTXGzrt9-9" value="&lt;b&gt;ImageStram&lt;/b&gt;" style="rounded=1;whiteSpace=wrap;html=1;fillColor=#ffe6cc;strokeColor=#d79b00;" vertex="1" parent="1">
          <mxGeometry x="340" y="320" width="120" height="60" as="geometry" />
        </mxCell>
      </root>
    </mxGraphModel>
  </diagram>
</mxfile>
